<svg xmlns="http://www.w3.org/2000/svg" width="2708" height="299" viewBox="0 0 2708 299">
  <metadata><?xpacket begin="﻿" id="W5M0MpCehiHzreSzNTczkc9d"?>
<x:xmpmeta xmlns:x="adobe:ns:meta/" x:xmptk="Adobe XMP Core 5.6-c142 79.160924, 2017/07/13-01:06:39        ">
   <rdf:RDF xmlns:rdf="http://www.w3.org/1999/02/22-rdf-syntax-ns#">
      <rdf:Description rdf:about=""/>
   </rdf:RDF>
</x:xmpmeta>
                                                                                                    
                                                                                                    
                                                                                                    
                                                                                                    
                                                                                                    
                                                                                                    
                                                                                                    
                                                                                                    
                                                                                                    
                                                                                                    
                                                                                                    
                                                                                                    
                                                                                                    
                                                                                                    
                                                                                                    
                                                                                                    
                                                                                                    
                                                                                                    
                                                                                                    
                                                                                                    
                           
<?xpacket end="w"?></metadata>
<defs>
    <style>
      .cls-1 {
        fill: #193c66;
      }

      .cls-1, .cls-2, .cls-3 {
        fill-rule: evenodd;
      }

      .cls-2 {
        fill: #e65c5c;
      }
    </style>
  </defs>
  <path id="simplest" class="cls-1" d="M365.99,101.66q-13.331-15.037-29.309-21.7a89.006,89.006,0,0,0-34.607-6.665,75.127,75.127,0,0,0-26.062,4.358,70.96,70.96,0,0,0-20.423,11.279,54.077,54.077,0,0,0-13.415,15.637A35.462,35.462,0,0,0,237.3,122a43.605,43.605,0,0,0,2.735,15.808,39.524,39.524,0,0,0,7.946,12.732,57.63,57.63,0,0,0,12.732,10.168,103.449,103.449,0,0,0,17.09,8.118q4.782,1.882,9.485,3.247t9.485,2.734q8.715,2.564,14.7,4.871a43.31,43.31,0,0,1,9.656,4.956,18.077,18.077,0,0,1,5.383,5.725,14.558,14.558,0,0,1,1.709,7.178q0,8.034-7.69,12.048t-21.7,4.016a46.6,46.6,0,0,1-13.245-2.05,68.934,68.934,0,0,1-13.245-5.469,72.48,72.48,0,0,1-11.45-7.605,35.137,35.137,0,0,1-7.861-8.631q-1.538-3.756-2.564-5.9a4.078,4.078,0,0,0-3.076-2.478l-20.337,36.744q15.381,14.528,32.9,21.106a107.836,107.836,0,0,0,38.2,6.579,88.077,88.077,0,0,0,28.8-4.443A68.375,68.375,0,0,0,348.9,229.406a54.761,54.761,0,0,0,14.014-17.517,46.381,46.381,0,0,0,4.956-21.02q0-16.575-13.758-29.4t-42.981-21.02q-9.573-2.564-16.577-4.785a68.646,68.646,0,0,1-11.621-4.7,21.268,21.268,0,0,1-6.921-5.469,11.8,11.8,0,0,1-2.307-7.434,10.49,10.49,0,0,1,2.136-6.665,15.494,15.494,0,0,1,5.81-4.443,32.092,32.092,0,0,1,8.46-2.478,63.455,63.455,0,0,1,10.083-.769,51.581,51.581,0,0,1,12.39,1.538,65.479,65.479,0,0,1,11.792,4.1,54.683,54.683,0,0,1,10.168,6.067,45.231,45.231,0,0,1,7.691,7.263,12.226,12.226,0,0,1,.854,2.308,23.353,23.353,0,0,0,.769,2.392,5.28,5.28,0,0,0,1.2,1.88,2.882,2.882,0,0,0,2.136.769ZM468.016,5.7a23.331,23.331,0,0,0-7.69,5.127,20.994,20.994,0,0,0-4.615,7.178,22.55,22.55,0,0,0-1.538,8.118,19.906,19.906,0,0,0,1.966,8.716,23.458,23.458,0,0,0,5.3,7.178A23.832,23.832,0,0,0,469.3,46.8a26.606,26.606,0,0,0,9.485,1.709,25.946,25.946,0,0,0,9.4-1.709,24.056,24.056,0,0,0,7.776-4.785,23.507,23.507,0,0,0,5.3-7.178,20.312,20.312,0,0,0,0-17.432,22.5,22.5,0,0,0-5.3-7.092,26.27,26.27,0,0,0-7.776-4.785,24.871,24.871,0,0,0-9.4-1.794A27.338,27.338,0,0,0,468.016,5.7Zm-47,101.6h37.769V209.839H419.31v30.42H533.641v-30.42H497.582V76.88H421.019V107.3ZM607.127,240.259V131.738a92.7,92.7,0,0,1,1.026-15.21,31.678,31.678,0,0,1,2.9-9.485,11.732,11.732,0,0,1,4.529-4.956,12.067,12.067,0,0,1,5.9-1.453,7.32,7.32,0,0,1,3.674,1.026,8.957,8.957,0,0,1,3.247,3.931,31.272,31.272,0,0,1,2.393,8.288,85.281,85.281,0,0,1,.94,14.1V240.259H667.8v-107.5q0-32.127,13.33-32.129,5.808,0,8.118,5.9t2.307,19.568V240.259h36.4V119.433a126.078,126.078,0,0,0-1.624-21.447,45.032,45.032,0,0,0-5.383-15.552,24.425,24.425,0,0,0-10-9.4q-6.24-3.16-15.637-3.162A37.448,37.448,0,0,0,677.2,74.829a40.729,40.729,0,0,0-15.039,14.526,40.119,40.119,0,0,0-5.811-9.228,33.1,33.1,0,0,0-6.75-6.067,23.771,23.771,0,0,0-7.178-3.247,28.084,28.084,0,0,0-6.921-.94,34.993,34.993,0,0,0-14.612,3.589q-7.779,3.589-15.467,11.792V75h-33.5V240.259h35.2Zm188.245-102.8a54.82,54.82,0,0,1,4.7-16.406,28.617,28.617,0,0,1,9.4-11.279q5.98-4.187,15.381-4.187,17.772,0,27.258,14.355t9.485,40.845q0,14.7-3.332,24.695a48.463,48.463,0,0,1-8.545,16.149,31.692,31.692,0,0,1-11.536,8.887,30.884,30.884,0,0,1-12.305,2.735,28.189,28.189,0,0,1-13.244-3.077,25.752,25.752,0,0,1-10-9.826q-4.1-6.75-6.323-17.432a129.163,129.163,0,0,1-2.222-25.891A143.637,143.637,0,0,1,795.372,137.463ZM754.955,298.706H794.09V229.492A51.093,51.093,0,0,0,811.351,241.2a52.056,52.056,0,0,0,20.508,4.358,67.6,67.6,0,0,0,26.318-5.212,61.493,61.493,0,0,0,21.961-15.637,77.261,77.261,0,0,0,15.124-25.891q5.64-15.465,5.64-35.974,0-22.56-5.469-39.393T880.48,95.508a61.543,61.543,0,0,0-22.046-16.663,65.84,65.84,0,0,0-26.917-5.554A48.752,48.752,0,0,0,821.349,74.4a45.681,45.681,0,0,0-10.34,3.589,51.871,51.871,0,0,0-9.912,6.323,47.118,47.118,0,0,0-8.716,9.314V76.88H754.613ZM936.278,34.5h42.554V209.839H934.056v30.42H1062.91v-30.42h-44.77V4.077H936.278V34.5ZM1145.03,79.358A70.664,70.664,0,0,0,1120.59,96.7a80.066,80.066,0,0,0-16.15,27.514q-5.805,16.239-5.81,36.573,0,20,6.15,35.8a77.144,77.144,0,0,0,17.01,26.746,73.136,73.136,0,0,0,25.8,16.748,89.168,89.168,0,0,0,32.56,5.81q37.08,0,61.87-29.394l-21.71-21.7a51.461,51.461,0,0,1-40.16,19.824,40.927,40.927,0,0,1-14.44-2.649,37.536,37.536,0,0,1-12.9-8.2,48.225,48.225,0,0,1-9.92-14.014,63.006,63.006,0,0,1-5.46-20.251h107.15c0.23-2.62.45-5.3,0.68-8.033s0.34-5.525.34-8.374q0-19.65-5.46-34.607a71.381,71.381,0,0,0-14.96-24.951,62.59,62.59,0,0,0-22.13-15.124,71.629,71.629,0,0,0-27.17-5.127A77.25,77.25,0,0,0,1145.03,79.358Zm-6.24,61.438a61.409,61.409,0,0,1,3.85-15.723,39.271,39.271,0,0,1,7.35-11.963,31.587,31.587,0,0,1,23.84-10.425,29.59,29.59,0,0,1,13.58,3.076,31,31,0,0,1,10.26,8.289,38.81,38.81,0,0,1,6.49,12.134,45.851,45.851,0,0,1,2.31,14.612h-67.68Zm277.2-39.136q-13.335-15.037-29.31-21.7a88.993,88.993,0,0,0-34.61-6.665,75.16,75.16,0,0,0-26.06,4.358,71,71,0,0,0-20.42,11.279,54.112,54.112,0,0,0-13.42,15.637A35.534,35.534,0,0,0,1287.3,122a43.477,43.477,0,0,0,2.74,15.808,39.593,39.593,0,0,0,7.94,12.732,57.682,57.682,0,0,0,12.74,10.168,103.064,103.064,0,0,0,17.09,8.118c3.18,1.255,6.35,2.336,9.48,3.247s6.29,1.824,9.49,2.734q8.715,2.564,14.69,4.871a43.26,43.26,0,0,1,9.66,4.956,18.054,18.054,0,0,1,5.38,5.725,14.536,14.536,0,0,1,1.71,7.178q0,8.034-7.69,12.048t-21.7,4.016a46.649,46.649,0,0,1-13.25-2.05,68.889,68.889,0,0,1-13.24-5.469,72.389,72.389,0,0,1-11.45-7.605,35.072,35.072,0,0,1-7.86-8.631c-1.03-2.5-1.88-4.47-2.57-5.9a4.076,4.076,0,0,0-3.07-2.478l-20.34,36.744q15.375,14.528,32.9,21.106a107.8,107.8,0,0,0,38.19,6.579,88.072,88.072,0,0,0,28.8-4.443,68.381,68.381,0,0,0,21.96-12.049,54.626,54.626,0,0,0,14.01-17.517,46.294,46.294,0,0,0,4.96-21.02q0-16.575-13.76-29.4t-42.98-21.02q-9.57-2.564-16.58-4.785a68.874,68.874,0,0,1-11.62-4.7,21.349,21.349,0,0,1-6.92-5.469,11.791,11.791,0,0,1-2.31-7.434,10.469,10.469,0,0,1,2.14-6.665,15.478,15.478,0,0,1,5.81-4.443,32.115,32.115,0,0,1,8.46-2.478,63.462,63.462,0,0,1,10.08-.769,51.526,51.526,0,0,1,12.39,1.538,65.67,65.67,0,0,1,11.8,4.1,54.452,54.452,0,0,1,10.16,6.067,45.073,45.073,0,0,1,7.69,7.263,11.763,11.763,0,0,1,.86,2.308,22.868,22.868,0,0,0,.77,2.392,5.265,5.265,0,0,0,1.19,1.88,2.909,2.909,0,0,0,2.14.769Zm76.73-24.78H1455.3v31.787h35.37q-1.875,23.928-2.56,41.272t-0.68,29.138q0,17.6,2.99,30.249t9.4,20.764a37.848,37.848,0,0,0,16.23,11.963q9.825,3.845,23.5,3.845a72.443,72.443,0,0,0,27.26-5.554,136.9,136.9,0,0,0,28.11-15.808l-12.3-32.3a161.025,161.025,0,0,1-21.71,14.27q-9.57,5.043-15.38,5.042-5.985,0-9.65-2.82-3.69-2.82-5.64-8.8a63.324,63.324,0,0,1-2.57-15.551q-0.6-9.57-.6-22.9,0-13.158,1.11-26.66t1.63-26.147h50.75V76.88h-49.38l3.58-31.616a40.966,40.966,0,0,1,2.4-6.665,17.29,17.29,0,0,0,1.36-7.349l-43.4,7.349Z"/>
  <path id="form" class="cls-2" d="M1886.02,4.962a59.506,59.506,0,0,0-21.45,13.672,65.315,65.315,0,0,0-14.61,22.815q-5.385,13.675-5.39,31.787V84.857H1809.2v31.1h35.37V239.52h38.11V115.96h50.08v-31.1h-50.08V76.483q0-23.071,7.18-34.009t21.88-10.937a31.041,31.041,0,0,1,11.02,1.965,43.208,43.208,0,0,1,9.4,4.871,44.839,44.839,0,0,1,7.35,6.323,54.176,54.176,0,0,1,5.21,6.494,26.794,26.794,0,0,0,1.96,5.64c0.63,1.14,1.86,1.709,3.68,1.709l16.06-31.445q-21.7-26.66-54.34-26.66A74.387,74.387,0,0,0,1886.02,4.962Zm133.47,74.17a78.807,78.807,0,0,0-25.04,18.2,86.318,86.318,0,0,0-17,27.515,93.638,93.638,0,0,0-6.24,34.521,95.006,95.006,0,0,0,6.07,34.522,83.2,83.2,0,0,0,16.74,27.173,75.754,75.754,0,0,0,24.95,17.773,74.918,74.918,0,0,0,30.68,6.323,77.618,77.618,0,0,0,30.42-5.9,68.283,68.283,0,0,0,24.18-17,79.865,79.865,0,0,0,15.98-27.173q5.8-16.062,5.81-36.4t-5.89-36.4A78.661,78.661,0,0,0,2103.91,95.2a69.872,69.872,0,0,0-24.18-16.833,76.083,76.083,0,0,0-29.74-5.811A71.981,71.981,0,0,0,2019.49,79.131Zm57.42,120.227q-10.17,13.843-27.26,13.843a32.053,32.053,0,0,1-15.81-3.93,35.52,35.52,0,0,1-12.05-11.109,54.358,54.358,0,0,1-7.6-17.346A90.381,90.381,0,0,1,2011.54,158a85.645,85.645,0,0,1,2.74-22.644,54.85,54.85,0,0,1,7.6-17,33.451,33.451,0,0,1,11.79-10.682,33.507,33.507,0,0,1,30.51,0,35.1,35.1,0,0,1,12.13,10.767,53.575,53.575,0,0,1,7.95,17.346,89.227,89.227,0,0,1,2.82,23.584Q2087.08,185.516,2076.91,199.358Zm90.32,40.162h39.65V154.07a51.961,51.961,0,0,1,3.33-18.542,48.55,48.55,0,0,1,9.23-15.381,44.95,44.95,0,0,1,13.67-10.425,37.428,37.428,0,0,1,16.83-3.845q7.86,0,15.73,5.469t16.4,17.261L2300.36,90.5a61.38,61.38,0,0,0-22.3-13.586,80.036,80.036,0,0,0-26.41-4.358,50.37,50.37,0,0,0-12.73,1.624,57.587,57.587,0,0,0-11.88,4.529,64.617,64.617,0,0,0-10.59,6.836,69.175,69.175,0,0,0-8.89,8.374V76.141h-40.33V239.52Zm190.38,0V131a91.992,91.992,0,0,1,1.03-15.21,31.747,31.747,0,0,1,2.9-9.485,11.709,11.709,0,0,1,4.53-4.956,12.068,12.068,0,0,1,5.9-1.452,7.321,7.321,0,0,1,3.67,1.025,8.953,8.953,0,0,1,3.25,3.931,31.63,31.63,0,0,1,2.39,8.288,85.834,85.834,0,0,1,.94,14.1V239.52h36.06v-107.5q0-32.127,13.33-32.128,5.8,0,8.12,5.9,2.3,5.895,2.3,19.567V239.52h36.41V118.694a126.235,126.235,0,0,0-1.63-21.447,45.053,45.053,0,0,0-5.38-15.552,24.43,24.43,0,0,0-10-9.4q-6.24-3.16-15.64-3.162a37.438,37.438,0,0,0-18.11,4.956,40.754,40.754,0,0,0-15.04,14.526,40.253,40.253,0,0,0-5.81-9.228,33.336,33.336,0,0,0-6.75-6.067,23.8,23.8,0,0,0-7.18-3.247,28.089,28.089,0,0,0-6.92-.94,34.971,34.971,0,0,0-14.61,3.589q-7.785,3.589-15.47,11.792V74.261h-33.49V239.52h35.2Z"/>
  <path id="_" data-name="&lt;" class="cls-3" d="M152.247,59.294L0.489,139.446v20.337l152.954,89.55V211.907l-110.4-62.036,109.2-55.884V59.294Z"/>
  <path id="_2" data-name="&gt;" class="cls-3" d="M2664.58,149.842l-109.89,62.036v37.427l152.95-89.551V139.418L2555.03,59.266V93.959Z"/>
  <path id="_3" data-name="/" class="cls-3" d="M1663.14,251.412L1771.32,17.281,1740.73,1.558,1632.21,236.715Z"/>
</svg>
