<svg xmlns="http://www.w3.org/2000/svg" width="751" height="380" viewBox="0 0 751 380">
  <metadata><?xpacket begin="﻿" id="W5M0MpCehiHzreSzNTczkc9d"?>
<x:xmpmeta xmlns:x="adobe:ns:meta/" x:xmptk="Adobe XMP Core 5.6-c142 79.160924, 2017/07/13-01:06:39        ">
   <rdf:RDF xmlns:rdf="http://www.w3.org/1999/02/22-rdf-syntax-ns#">
      <rdf:Description rdf:about=""/>
   </rdf:RDF>
</x:xmpmeta>
                                                                                                    
                                                                                                    
                                                                                                    
                                                                                                    
                                                                                                    
                                                                                                    
                                                                                                    
                                                                                                    
                                                                                                    
                                                                                                    
                                                                                                    
                                                                                                    
                                                                                                    
                                                                                                    
                                                                                                    
                                                                                                    
                                                                                                    
                                                                                                    
                                                                                                    
                                                                                                    
                           
<?xpacket end="w"?></metadata>
<defs>
    <style>
      .cls-1 {
        fill: #193c66;
      }

      .cls-1, .cls-2, .cls-3 {
        fill-rule: evenodd;
      }

      .cls-3 {
        fill: #e55c5c;
      }
    </style>
  </defs>
  <path id="s" class="cls-1" d="M326.6,30.014Q312.992,14.664,296.681,7.858a90.858,90.858,0,0,0-35.327-6.8A76.688,76.688,0,0,0,234.75,5.5,72.418,72.418,0,0,0,213.9,17.017a55.184,55.184,0,0,0-13.694,15.962,36.192,36.192,0,0,0-4.972,17.794,44.508,44.508,0,0,0,2.791,16.137,40.335,40.335,0,0,0,8.112,13,58.827,58.827,0,0,0,13,10.38,105.53,105.53,0,0,0,17.445,8.287q4.882,1.922,9.682,3.314t9.682,2.791q8.9,2.618,15,4.972a44.2,44.2,0,0,1,9.857,5.06,18.456,18.456,0,0,1,5.5,5.844,14.862,14.862,0,0,1,1.745,7.327q0,8.2-7.851,12.3t-22.155,4.1a47.551,47.551,0,0,1-13.52-2.093A70.255,70.255,0,0,1,231,136.6a73.911,73.911,0,0,1-11.689-7.763,35.849,35.849,0,0,1-8.025-8.81q-1.569-3.834-2.616-6.018a4.165,4.165,0,0,0-3.141-2.53l-20.76,37.508q15.7,14.829,33.583,21.545a110.08,110.08,0,0,0,38.99,6.716,89.9,89.9,0,0,0,29.4-4.536,69.779,69.779,0,0,0,22.418-12.3,55.9,55.9,0,0,0,14.305-17.881,47.344,47.344,0,0,0,5.059-21.458q0-16.918-14.044-30.006T270.6,69.614Q260.829,67,253.678,64.73a70.023,70.023,0,0,1-11.862-4.8,21.71,21.71,0,0,1-7.066-5.583,12.047,12.047,0,0,1-2.355-7.589,10.705,10.705,0,0,1,2.181-6.8,15.821,15.821,0,0,1,5.931-4.536,32.8,32.8,0,0,1,8.636-2.53,64.8,64.8,0,0,1,10.292-.785,52.687,52.687,0,0,1,12.648,1.57,66.9,66.9,0,0,1,12.038,4.187A55.821,55.821,0,0,1,294.5,44.057a46.134,46.134,0,0,1,7.851,7.414,12.5,12.5,0,0,1,.872,2.355,23.592,23.592,0,0,0,.785,2.442,5.392,5.392,0,0,0,1.221,1.919,2.947,2.947,0,0,0,2.181.785Z"/>
  <path id="_" data-name="/" class="cls-2" d="M315.43,324.032l110.429-239-31.227-16.05L283.854,309.03Z"/>
  <path id="f" class="cls-3" d="M481.64,141.008a60.78,60.78,0,0,0-21.894,13.956,66.644,66.644,0,0,0-14.916,23.29q-5.495,13.959-5.5,32.448v11.863H403.223v31.75h36.112v126.13h38.9V254.315h51.115v-31.75H478.238v-8.548q0-23.551,7.327-34.716t22.33-11.165a31.673,31.673,0,0,1,11.252,2.006,44,44,0,0,1,9.595,4.972,45.732,45.732,0,0,1,7.5,6.454,54.345,54.345,0,0,1,5.32,6.63,27.075,27.075,0,0,0,2.007,5.757q0.957,1.746,3.75,1.744l16.4-32.1q-22.157-27.215-55.476-27.215A75.972,75.972,0,0,0,481.64,141.008Z"/>
  <path id="_2" data-name="&lt;" class="cls-2" d="M155.866,100.055L0.951,181.873v20.76l156.136,91.414V255.842L44.39,192.515l111.476-57.046V100.055Z"/>
  <path id="_3" data-name="&gt;" class="cls-2" d="M706.727,191.19L594.554,254.516v38.206l156.135-91.414v-20.76L594.9,98.73v35.414Z"/>
</svg>
